{
	"asset":{
		"generator":"Khronos glTF Blender I/O v4.0.43",
		"version":"2.0"
	},
	"scene":0,
	"scenes":[
		{
			"name":"Scene",
			"nodes":[
				0
			]
		}
	],
	"nodes":[
		{
			"mesh":0,
			"name":"storage_rack_02"
		}
	],
	"materials":[
		{
			"doubleSided":true,
			"name":"Oak_-_Hazel_-_Top_3K",
			"pbrMetallicRoughness":{
				"baseColorTexture":{
					"index":0
				},
				"metallicFactor":0,
				"metallicRoughnessTexture":{
					"index":1
				},
				"roughnessFactor":0.44999998807907104
			}
		},
		{
			"doubleSided":true,
			"name":"Metal_-_Sunset_gold",
			"pbrMetallicRoughness":{
				"baseColorFactor":[
					0.52252197265625,
					0.3736239969730377,
					0.2026520073413849,
					1
				],
				"roughnessFactor":0.10000000149011612
			}
		},
		{
			"doubleSided":true,
			"name":"Metal_-_Powdercoat_black",
			"pbrMetallicRoughness":{
				"baseColorFactor":[
					0.02500000037252903,
					0.02500000037252903,
					0.02500000037252903,
					1
				],
				"metallicFactor":0,
				"roughnessFactor":0.15000000596046448
			}
		},
		{
			"doubleSided":true,
			"name":"Oak_-_Hazel_-_End_grain_2K",
			"pbrMetallicRoughness":{
				"baseColorTexture":{
					"index":2
				},
				"metallicFactor":0,
				"metallicRoughnessTexture":{
					"index":3
				},
				"roughnessFactor":0.44999998807907104
			}
		}
	],
	"meshes":[
		{
			"name":"storage_rack_02",
			"primitives":[
				{
					"attributes":{
						"POSITION":0,
						"NORMAL":1,
						"TEXCOORD_0":2,
						"TEXCOORD_1":3,
						"TEXCOORD_2":4,
						"TEXCOORD_3":5
					},
					"indices":6,
					"material":0
				},
				{
					"attributes":{
						"POSITION":7,
						"NORMAL":8,
						"TEXCOORD_0":9,
						"TEXCOORD_1":10,
						"TEXCOORD_2":11,
						"TEXCOORD_3":12
					},
					"indices":13,
					"material":1
				},
				{
					"attributes":{
						"POSITION":14,
						"NORMAL":15,
						"TEXCOORD_0":16,
						"TEXCOORD_1":17,
						"TEXCOORD_2":18,
						"TEXCOORD_3":19
					},
					"indices":20,
					"material":2
				},
				{
					"attributes":{
						"POSITION":21,
						"NORMAL":22,
						"TEXCOORD_0":23,
						"TEXCOORD_1":24,
						"TEXCOORD_2":25,
						"TEXCOORD_3":26
					},
					"indices":27,
					"material":3
				}
			]
		}
	],
	"textures":[
		{
			"sampler":0,
			"source":0
		},
		{
			"sampler":0,
			"source":1
		},
		{
			"sampler":0,
			"source":2
		},
		{
			"sampler":0,
			"source":3
		}
	],
	"images":[
		{
			"mimeType":"image/jpeg",
			"name":"Oak_-_Hazel_-_Top_3K_baseColor",
			"uri":"Oak_-_Hazel_-_Top_3K_baseColor.jpg"
		},
		{
			"mimeType":"image/png",
			"name":"Oak_-_Hazel_-_Top_3K_metallicRoughness",
			"uri":"Oak_-_Hazel_-_Top_3K_metallicRoughness.png"
		},
		{
			"mimeType":"image/jpeg",
			"name":"Oak_-_Hazel_-_End_grain_2K_baseColor",
			"uri":"Oak_-_Hazel_-_End_grain_2K_baseColor.jpg"
		},
		{
			"mimeType":"image/png",
			"name":"Oak_-_Hazel_-_End_grain_2K_metallicRoughness",
			"uri":"Oak_-_Hazel_-_End_grain_2K_metallicRoughness.png"
		}
	],
	"accessors":[
		{
			"bufferView":0,
			"componentType":5126,
			"count":8326,
			"max":[
				0.62395840883255,
				2,
				0.42499998211860657
			],
			"min":[
				-0.62395840883255,
				0.030434848740696907,
				-0.42500001192092896
			],
			"type":"VEC3"
		},
		{
			"bufferView":1,
			"componentType":5126,
			"count":8326,
			"type":"VEC3"
		},
		{
			"bufferView":2,
			"componentType":5126,
			"count":8326,
			"type":"VEC2"
		},
		{
			"bufferView":3,
			"componentType":5126,
			"count":8326,
			"type":"VEC2"
		},
		{
			"bufferView":4,
			"componentType":5126,
			"count":8326,
			"type":"VEC2"
		},
		{
			"bufferView":5,
			"componentType":5126,
			"count":8326,
			"type":"VEC2"
		},
		{
			"bufferView":6,
			"componentType":5123,
			"count":24576,
			"type":"SCALAR"
		},
		{
			"bufferView":7,
			"componentType":5126,
			"count":79898,
			"max":[
				0.5907159447669983,
				1.9643477201461792,
				0.3417387902736664
			],
			"min":[
				-0.5907157063484192,
				0.504842221736908,
				-0.3417387902736664
			],
			"type":"VEC3"
		},
		{
			"bufferView":8,
			"componentType":5126,
			"count":79898,
			"type":"VEC3"
		},
		{
			"bufferView":9,
			"componentType":5126,
			"count":79898,
			"type":"VEC2"
		},
		{
			"bufferView":10,
			"componentType":5126,
			"count":79898,
			"type":"VEC2"
		},
		{
			"bufferView":11,
			"componentType":5126,
			"count":79898,
			"type":"VEC2"
		},
		{
			"bufferView":12,
			"componentType":5126,
			"count":79898,
			"type":"VEC2"
		},
		{
			"bufferView":13,
			"componentType":5125,
			"count":224256,
			"type":"SCALAR"
		},
		{
			"bufferView":14,
			"componentType":5126,
			"count":60205,
			"max":[
				0.625,
				1.9695651531219482,
				0.42499998211860657
			],
			"min":[
				-0.625,
				0,
				-0.42499998211860657
			],
			"type":"VEC3"
		},
		{
			"bufferView":15,
			"componentType":5126,
			"count":60205,
			"type":"VEC3"
		},
		{
			"bufferView":16,
			"componentType":5126,
			"count":60205,
			"type":"VEC2"
		},
		{
			"bufferView":17,
			"componentType":5126,
			"count":60205,
			"type":"VEC2"
		},
		{
			"bufferView":18,
			"componentType":5126,
			"count":60205,
			"type":"VEC2"
		},
		{
			"bufferView":19,
			"componentType":5126,
			"count":60205,
			"type":"VEC2"
		},
		{
			"bufferView":20,
			"componentType":5123,
			"count":146688,
			"type":"SCALAR"
		},
		{
			"bufferView":21,
			"componentType":5126,
			"count":2534,
			"max":[
				0.625,
				1.9992752075195312,
				0.42247024178504944
			],
			"min":[
				-0.625,
				0.030956575646996498,
				-0.42247024178504944
			],
			"type":"VEC3"
		},
		{
			"bufferView":22,
			"componentType":5126,
			"count":2534,
			"type":"VEC3"
		},
		{
			"bufferView":23,
			"componentType":5126,
			"count":2534,
			"type":"VEC2"
		},
		{
			"bufferView":24,
			"componentType":5126,
			"count":2534,
			"type":"VEC2"
		},
		{
			"bufferView":25,
			"componentType":5126,
			"count":2534,
			"type":"VEC2"
		},
		{
			"bufferView":26,
			"componentType":5126,
			"count":2534,
			"type":"VEC2"
		},
		{
			"bufferView":27,
			"componentType":5123,
			"count":7056,
			"type":"SCALAR"
		}
	],
	"bufferViews":[
		{
			"buffer":0,
			"byteLength":99912,
			"byteOffset":0,
			"target":34962
		},
		{
			"buffer":0,
			"byteLength":99912,
			"byteOffset":99912,
			"target":34962
		},
		{
			"buffer":0,
			"byteLength":66608,
			"byteOffset":199824,
			"target":34962
		},
		{
			"buffer":0,
			"byteLength":66608,
			"byteOffset":266432,
			"target":34962
		},
		{
			"buffer":0,
			"byteLength":66608,
			"byteOffset":333040,
			"target":34962
		},
		{
			"buffer":0,
			"byteLength":66608,
			"byteOffset":399648,
			"target":34962
		},
		{
			"buffer":0,
			"byteLength":49152,
			"byteOffset":466256,
			"target":34963
		},
		{
			"buffer":0,
			"byteLength":958776,
			"byteOffset":515408,
			"target":34962
		},
		{
			"buffer":0,
			"byteLength":958776,
			"byteOffset":1474184,
			"target":34962
		},
		{
			"buffer":0,
			"byteLength":639184,
			"byteOffset":2432960,
			"target":34962
		},
		{
			"buffer":0,
			"byteLength":639184,
			"byteOffset":3072144,
			"target":34962
		},
		{
			"buffer":0,
			"byteLength":639184,
			"byteOffset":3711328,
			"target":34962
		},
		{
			"buffer":0,
			"byteLength":639184,
			"byteOffset":4350512,
			"target":34962
		},
		{
			"buffer":0,
			"byteLength":897024,
			"byteOffset":4989696,
			"target":34963
		},
		{
			"buffer":0,
			"byteLength":722460,
			"byteOffset":5886720,
			"target":34962
		},
		{
			"buffer":0,
			"byteLength":722460,
			"byteOffset":6609180,
			"target":34962
		},
		{
			"buffer":0,
			"byteLength":481640,
			"byteOffset":7331640,
			"target":34962
		},
		{
			"buffer":0,
			"byteLength":481640,
			"byteOffset":7813280,
			"target":34962
		},
		{
			"buffer":0,
			"byteLength":481640,
			"byteOffset":8294920,
			"target":34962
		},
		{
			"buffer":0,
			"byteLength":481640,
			"byteOffset":8776560,
			"target":34962
		},
		{
			"buffer":0,
			"byteLength":293376,
			"byteOffset":9258200,
			"target":34963
		},
		{
			"buffer":0,
			"byteLength":30408,
			"byteOffset":9551576,
			"target":34962
		},
		{
			"buffer":0,
			"byteLength":30408,
			"byteOffset":9581984,
			"target":34962
		},
		{
			"buffer":0,
			"byteLength":20272,
			"byteOffset":9612392,
			"target":34962
		},
		{
			"buffer":0,
			"byteLength":20272,
			"byteOffset":9632664,
			"target":34962
		},
		{
			"buffer":0,
			"byteLength":20272,
			"byteOffset":9652936,
			"target":34962
		},
		{
			"buffer":0,
			"byteLength":20272,
			"byteOffset":9673208,
			"target":34962
		},
		{
			"buffer":0,
			"byteLength":14112,
			"byteOffset":9693480,
			"target":34963
		}
	],
	"samplers":[
		{
			"magFilter":9729,
			"minFilter":9987
		}
	],
	"buffers":[
		{
			"byteLength":9707592,
			"uri":"storage_rack_02.bin"
		}
	]
}
